<mxfile host="app.diagrams.net" agent="Mozilla/5.0 (Windows NT 10.0; Win64; x64) AppleWebKit/537.36 (KHTML, like Gecko) Chrome/137.0.0.0 Safari/537.36 Edg/137.0.0.0" version="27.1.5">
  <diagram name="Page-1" id="1KVz1v-lmnu2UD438DBs">
    <mxGraphModel dx="1111" dy="680" grid="1" gridSize="10" guides="1" tooltips="1" connect="1" arrows="1" fold="1" page="1" pageScale="1" pageWidth="850" pageHeight="1100" math="0" shadow="0">
      <root>
        <mxCell id="0" />
        <mxCell id="1" parent="0" />
        <mxCell id="CKC33R4wWAwpJ6xkKlqQ-2" value="Seasonal Growth Stage Map (Sentinel-1)" style="rounded=0;whiteSpace=wrap;html=1;" vertex="1" parent="1">
          <mxGeometry x="300" y="270" width="130" height="60" as="geometry" />
        </mxCell>
        <mxCell id="CKC33R4wWAwpJ6xkKlqQ-3" value="Flood Extent Map (Sentinel-1)" style="rounded=0;whiteSpace=wrap;html=1;" vertex="1" parent="1">
          <mxGeometry x="300" y="190" width="130" height="60" as="geometry" />
        </mxCell>
        <mxCell id="CKC33R4wWAwpJ6xkKlqQ-4" value="MODIS Vegetation Health index (VHI)" style="rounded=0;whiteSpace=wrap;html=1;" vertex="1" parent="1">
          <mxGeometry x="300" y="350" width="130" height="60" as="geometry" />
        </mxCell>
        <mxCell id="CKC33R4wWAwpJ6xkKlqQ-5" value="Deriving damage curves specific to flood and drought" style="whiteSpace=wrap;html=1;aspect=fixed;" vertex="1" parent="1">
          <mxGeometry x="585" y="270" width="90" height="90" as="geometry" />
        </mxCell>
        <mxCell id="CKC33R4wWAwpJ6xkKlqQ-6" value="" style="rounded=0;whiteSpace=wrap;html=1;" vertex="1" parent="1">
          <mxGeometry x="90" y="350" width="130" height="60" as="geometry" />
        </mxCell>
        <mxCell id="CKC33R4wWAwpJ6xkKlqQ-7" value="Map validation&amp;nbsp;" style="ellipse;whiteSpace=wrap;html=1;aspect=fixed;" vertex="1" parent="1">
          <mxGeometry x="830" y="170" width="80" height="80" as="geometry" />
        </mxCell>
        <mxCell id="CKC33R4wWAwpJ6xkKlqQ-8" value="Overlay analysis" style="ellipse;whiteSpace=wrap;html=1;aspect=fixed;" vertex="1" parent="1">
          <mxGeometry x="460" y="260" width="80" height="80" as="geometry" />
        </mxCell>
        <mxCell id="CKC33R4wWAwpJ6xkKlqQ-9" value="Disaster dates" style="whiteSpace=wrap;html=1;aspect=fixed;" vertex="1" parent="1">
          <mxGeometry x="600" y="390" width="60" height="60" as="geometry" />
        </mxCell>
        <mxCell id="CKC33R4wWAwpJ6xkKlqQ-10" value="Error propagation and uncertainty estimation using Monte Carlo" style="whiteSpace=wrap;html=1;aspect=fixed;" vertex="1" parent="1">
          <mxGeometry x="710" y="270" width="90" height="90" as="geometry" />
        </mxCell>
        <mxCell id="CKC33R4wWAwpJ6xkKlqQ-12" value="Flood depth mapping with uncertainty using FwDET 2.1" style="whiteSpace=wrap;html=1;aspect=fixed;" vertex="1" parent="1">
          <mxGeometry x="710" y="160" width="90" height="90" as="geometry" />
        </mxCell>
        <mxCell id="CKC33R4wWAwpJ6xkKlqQ-13" value="" style="rounded=0;whiteSpace=wrap;html=1;" vertex="1" parent="1">
          <mxGeometry x="500" y="120" width="130" height="60" as="geometry" />
        </mxCell>
      </root>
    </mxGraphModel>
  </diagram>
</mxfile>
